<svg xmlns="http://www.w3.org/2000/svg" viewBox="0 0 64 64">
  <defs>
    <pattern id="hatch" width="6" height="6" patternUnits="userSpaceOnUse" patternTransform="rotate(45)">
      <line x1="0" y1="0" x2="0" y2="6" stroke="#f5f5f2" stroke-width="2"/>
    </pattern>
  </defs>
  <rect width="64" height="64" rx="8" fill="#000"/>
  <g fill="url(#hatch)">
    <rect x="8" y="8" width="12" height="12"/>
    <rect x="8" y="20" width="12" height="12"/>
    <rect x="8" y="32" width="12" height="12"/>
    <rect x="20" y="44" width="12" height="12"/>
    <rect x="32" y="44" width="12" height="12"/>
    <rect x="44" y="8" width="12" height="12"/>
    <rect x="44" y="20" width="12" height="12"/>
    <rect x="44" y="32" width="12" height="12"/>
  </g>
  <path d="M8 8H56V56H8ZM20 8V56M32 8V56M44 8V56M8 20H56M8 32H56M8 44H56"
        fill="none" stroke="#f5f5f2" stroke-width="1.8"/>
</svg>
